<?xml version="1.0" encoding="UTF-8"?>
<svg xmlns="http://www.w3.org/2000/svg" xmlns:xlink="http://www.w3.org/1999/xlink" width="75pt" height="74.999997pt" viewBox="0 0 75 74.999997" version="1.2">
<defs>
<clipPath id="clip1">
  <path d="M 0.46875 13 L 40 13 L 40 53 L 0.46875 53 Z M 0.46875 13 "/>
</clipPath>
<clipPath id="clip2">
  <path d="M 0.46875 28 L 26 28 L 26 52 L 0.46875 52 Z M 0.46875 28 "/>
</clipPath>
<clipPath id="clip3">
  <path d="M 28.609375 73.757812 L 53 73.757812 L 53 74.925781 L 28.609375 74.925781 Z M 28.609375 73.757812 "/>
</clipPath>
<clipPath id="clip4">
  <path d="M 28.609375 74.511719 L 30.503906 74.511719 L 30.503906 74.925781 L 28.609375 74.925781 Z M 28.609375 74.511719 "/>
</clipPath>
<clipPath id="clip5">
  <path d="M 25.003906 31.847656 L 65.609375 31.847656 L 65.609375 74.925781 L 25.003906 74.925781 Z M 25.003906 31.847656 "/>
</clipPath>
<clipPath id="clip6">
  <path d="M 56.121094 34.109375 L 74.71875 34.109375 L 74.71875 74.925781 L 56.121094 74.925781 Z M 56.121094 34.109375 "/>
</clipPath>
<clipPath id="clip7">
  <path d="M 70.730469 73.378906 L 71.679688 73.378906 L 71.679688 74.925781 L 70.730469 74.925781 Z M 70.730469 73.378906 "/>
</clipPath>
</defs>
<g id="surface1">
<g clip-path="url(#clip1)" clip-rule="nonzero">
<path style=" stroke:none;fill-rule:nonzero;fill:rgb(95.289612%,60.778809%,41.569519%);fill-opacity:1;" d="M 1.207031 38.113281 L 0.460938 37.285156 C 0.53125 34.554688 3.625 28.960938 3.625 28.960938 C 6.328125 24.167969 14.503906 20.671875 14.503906 20.671875 C 14.347656 15.597656 18.675781 13.21875 18.675781 13.21875 C 21.773438 13.347656 20.996094 14.808594 20.996094 14.808594 C 24.660156 15.023438 24.015625 16.738281 24.015625 16.738281 L 24.941406 16.957031 C 26.035156 18.285156 24.136719 20.324219 24.136719 20.324219 C 24.34375 22.328125 20.878906 23.394531 20.878906 23.394531 C 19.050781 22.753906 17.3125 23.628906 17.3125 23.628906 C 16.445312 29.207031 13.144531 34.679688 13.144531 34.679688 L 11.789062 35.671875 C 11.789062 35.671875 19.53125 28.652344 26.324219 37.050781 C 26.324219 37.050781 32.601562 34.269531 37.753906 38.59375 C 37.753906 38.59375 42.648438 50.203125 33.058594 51.792969 C 33.058594 51.792969 30.65625 53.984375 27.054688 50.765625 C 27.054688 50.765625 19.539062 54.199219 11.824219 45.957031 C 11.824219 45.957031 4.988281 46.277344 1.207031 38.113281 "/>
</g>
<g clip-path="url(#clip2)" clip-rule="nonzero">
<path style=" stroke:none;fill-rule:nonzero;fill:rgb(85.099792%,52.549744%,34.509277%);fill-opacity:1;" d="M 23.085938 51.476562 C 20.183594 51.476562 16.03125 50.453125 11.824219 45.957031 C 11.824219 45.957031 11.785156 45.957031 11.71875 45.957031 C 10.84375 45.957031 4.714844 45.683594 1.207031 38.113281 L 0.460938 37.285156 C 0.53125 34.554688 3.625 28.960938 3.625 28.960938 C 3.625 28.960938 2.730469 35.8125 4.570312 37.832031 C 4.570312 37.832031 15.046875 44.375 20.398438 45.339844 C 20.398438 45.339844 21.125 45.238281 22.238281 45.238281 C 23.230469 45.238281 24.53125 45.320312 25.898438 45.621094 C 25.289062 47.433594 24.929688 49.371094 25.054688 51.316406 C 24.492188 51.40625 23.832031 51.476562 23.085938 51.476562 "/>
</g>
<path style=" stroke:none;fill-rule:nonzero;fill:rgb(18.818665%,14.509583%,13.328552%);fill-opacity:1;" d="M 24.136719 20.324219 C 23.894531 20.164062 23.65625 19.996094 23.421875 19.828125 C 23.1875 19.65625 22.957031 19.476562 22.730469 19.292969 C 22.617188 19.207031 22.507812 19.109375 22.398438 19.011719 C 22.289062 18.914062 22.175781 18.828125 22.074219 18.71875 C 21.972656 18.617188 21.867188 18.515625 21.765625 18.410156 L 21.496094 18.0625 L 21.542969 18.078125 C 21.351562 18.160156 21.167969 18.28125 21.023438 18.429688 C 20.988281 18.464844 20.957031 18.507812 20.921875 18.546875 C 20.894531 18.589844 20.871094 18.636719 20.84375 18.679688 L 20.785156 18.820312 C 20.773438 18.871094 20.765625 18.921875 20.753906 18.972656 C 20.746094 19.023438 20.753906 19.074219 20.753906 19.125 C 20.746094 19.179688 20.769531 19.226562 20.777344 19.28125 C 20.785156 19.332031 20.792969 19.382812 20.816406 19.429688 L 20.878906 19.574219 C 20.898438 19.621094 20.929688 19.667969 20.957031 19.710938 C 20.984375 19.757812 21.007812 19.804688 21.039062 19.847656 L 21.234375 20.101562 L 21.390625 20.300781 L 21.183594 20.15625 C 21.082031 20.085938 20.972656 20.023438 20.863281 19.964844 C 20.75 19.90625 20.640625 19.847656 20.523438 19.800781 C 20.464844 19.78125 20.40625 19.753906 20.347656 19.734375 C 20.289062 19.714844 20.230469 19.695312 20.167969 19.675781 L 19.984375 19.636719 C 19.925781 19.621094 19.863281 19.617188 19.800781 19.609375 C 19.738281 19.597656 19.675781 19.601562 19.613281 19.601562 C 19.550781 19.597656 19.488281 19.601562 19.425781 19.613281 C 19.363281 19.621094 19.300781 19.625 19.242188 19.648438 C 19.183594 19.667969 19.121094 19.679688 19.066406 19.707031 L 18.898438 19.796875 C 18.847656 19.828125 18.800781 19.875 18.75 19.910156 L 18.679688 19.972656 L 18.617188 20.042969 L 18.496094 20.1875 L 18.671875 19.964844 L 18.742188 19.902344 C 18.792969 19.859375 18.835938 19.8125 18.886719 19.777344 L 19.054688 19.683594 C 19.109375 19.652344 19.171875 19.636719 19.234375 19.613281 C 19.292969 19.589844 19.355469 19.582031 19.421875 19.570312 C 19.484375 19.558594 19.546875 19.550781 19.613281 19.554688 C 19.675781 19.554688 19.742188 19.546875 19.804688 19.558594 C 19.867188 19.566406 19.933594 19.570312 19.996094 19.582031 L 20.183594 19.621094 C 20.246094 19.636719 20.304688 19.65625 20.367188 19.675781 C 20.429688 19.691406 20.488281 19.71875 20.546875 19.738281 C 20.667969 19.785156 20.785156 19.839844 20.898438 19.898438 C 21.007812 19.957031 21.121094 20.019531 21.226562 20.09375 L 21.175781 20.148438 L 20.972656 19.894531 C 20.941406 19.847656 20.914062 19.800781 20.886719 19.753906 C 20.859375 19.703125 20.828125 19.660156 20.804688 19.609375 L 20.742188 19.457031 C 20.714844 19.40625 20.707031 19.351562 20.695312 19.296875 C 20.683594 19.242188 20.664062 19.1875 20.667969 19.132812 C 20.667969 19.074219 20.660156 19.019531 20.667969 18.964844 C 20.679688 18.910156 20.6875 18.851562 20.703125 18.796875 C 20.722656 18.746094 20.742188 18.691406 20.765625 18.640625 C 20.792969 18.59375 20.824219 18.542969 20.855469 18.496094 C 20.890625 18.457031 20.925781 18.410156 20.960938 18.371094 C 21.121094 18.210938 21.308594 18.089844 21.511719 18.003906 L 21.539062 17.992188 L 21.5625 18.019531 L 21.824219 18.359375 C 21.921875 18.464844 22.023438 18.566406 22.125 18.667969 C 22.222656 18.777344 22.335938 18.867188 22.441406 18.964844 C 22.546875 19.0625 22.652344 19.160156 22.765625 19.253906 C 22.984375 19.441406 23.214844 19.621094 23.441406 19.800781 C 23.667969 19.980469 23.898438 20.15625 24.136719 20.324219 "/>
<path style=" stroke:none;fill-rule:nonzero;fill:rgb(18.818665%,14.509583%,13.328552%);fill-opacity:1;" d="M 23.898438 16.917969 C 23.898438 16.917969 23.882812 17.089844 23.828125 17.339844 C 23.777344 17.589844 23.691406 17.917969 23.585938 18.242188 C 23.480469 18.566406 23.351562 18.886719 23.226562 19.113281 C 23.164062 19.226562 23.101562 19.316406 23.046875 19.371094 C 23.019531 19.402344 22.992188 19.417969 22.976562 19.425781 C 22.953125 19.433594 22.945312 19.4375 22.945312 19.4375 L 22.96875 19.421875 C 22.984375 19.40625 23 19.386719 23.019531 19.355469 C 23.058594 19.292969 23.097656 19.191406 23.140625 19.074219 C 23.226562 18.839844 23.328125 18.515625 23.433594 18.195312 C 23.539062 17.871094 23.652344 17.550781 23.742188 17.3125 C 23.828125 17.074219 23.898438 16.917969 23.898438 16.917969 "/>
<path style=" stroke:none;fill-rule:nonzero;fill:rgb(18.818665%,14.509583%,13.328552%);fill-opacity:1;" d="M 21.980469 16.46875 C 21.9375 16.625 21.878906 16.777344 21.820312 16.929688 C 21.765625 17.082031 21.699219 17.230469 21.628906 17.378906 C 21.488281 17.671875 21.328125 17.957031 21.132812 18.222656 C 21.035156 18.355469 20.933594 18.488281 20.820312 18.609375 C 20.765625 18.671875 20.703125 18.726562 20.640625 18.78125 C 20.578125 18.835938 20.511719 18.886719 20.445312 18.9375 C 20.375 18.984375 20.308594 19.03125 20.230469 19.070312 C 20.15625 19.113281 20.078125 19.148438 20 19.175781 C 19.917969 19.203125 19.832031 19.222656 19.75 19.234375 C 19.664062 19.246094 19.578125 19.242188 19.492188 19.238281 L 19.472656 19.238281 L 19.460938 19.226562 C 19.324219 19.101562 19.191406 18.972656 19.078125 18.828125 C 19.050781 18.792969 19.027344 18.753906 19 18.714844 C 18.972656 18.679688 18.949219 18.640625 18.925781 18.597656 C 18.90625 18.558594 18.878906 18.519531 18.863281 18.476562 L 18.820312 18.347656 L 18.882812 18.46875 C 18.902344 18.507812 18.933594 18.542969 18.957031 18.578125 C 18.984375 18.617188 19.011719 18.652344 19.042969 18.683594 C 19.070312 18.714844 19.101562 18.75 19.132812 18.78125 C 19.195312 18.847656 19.257812 18.910156 19.324219 18.96875 C 19.390625 19.027344 19.460938 19.085938 19.53125 19.140625 L 19.5 19.128906 C 19.578125 19.125 19.652344 19.121094 19.730469 19.105469 C 19.804688 19.089844 19.878906 19.074219 19.953125 19.042969 C 20.023438 19.019531 20.09375 18.984375 20.160156 18.945312 C 20.230469 18.910156 20.292969 18.863281 20.355469 18.816406 C 20.417969 18.769531 20.480469 18.722656 20.539062 18.667969 C 20.59375 18.613281 20.648438 18.558594 20.707031 18.5 C 20.816406 18.386719 20.917969 18.265625 21.015625 18.136719 C 21.207031 17.882812 21.375 17.609375 21.535156 17.332031 C 21.617188 17.191406 21.6875 17.046875 21.765625 16.902344 C 21.839844 16.761719 21.910156 16.613281 21.980469 16.46875 "/>
<path style=" stroke:none;fill-rule:nonzero;fill:rgb(18.818665%,14.509583%,13.328552%);fill-opacity:1;" d="M 20.65625 15.515625 C 20.582031 15.890625 20.472656 16.253906 20.347656 16.613281 C 20.21875 16.972656 20.066406 17.324219 19.867188 17.65625 C 19.820312 17.738281 19.765625 17.820312 19.710938 17.898438 C 19.652344 17.976562 19.589844 18.050781 19.519531 18.121094 C 19.386719 18.261719 19.222656 18.390625 19.027344 18.457031 C 18.976562 18.476562 18.925781 18.484375 18.875 18.496094 C 18.824219 18.503906 18.769531 18.503906 18.71875 18.503906 C 18.667969 18.5 18.617188 18.492188 18.5625 18.484375 L 18.417969 18.4375 C 18.324219 18.394531 18.230469 18.347656 18.152344 18.285156 C 18.066406 18.234375 18 18.160156 17.925781 18.097656 L 17.9375 18.105469 C 17.75 17.980469 17.582031 17.839844 17.425781 17.683594 C 17.269531 17.527344 17.121094 17.355469 17.035156 17.136719 C 17.015625 17.078125 17 17.023438 16.992188 16.960938 C 16.984375 16.898438 16.984375 16.835938 17 16.777344 C 17.027344 16.652344 17.105469 16.546875 17.191406 16.472656 C 17.238281 16.433594 17.285156 16.398438 17.335938 16.371094 C 17.382812 16.339844 17.4375 16.320312 17.488281 16.292969 C 17.589844 16.25 17.695312 16.214844 17.804688 16.1875 L 17.761719 16.25 C 17.753906 16.15625 17.75 16.066406 17.753906 15.976562 C 17.757812 15.882812 17.765625 15.792969 17.777344 15.703125 C 17.789062 15.613281 17.808594 15.527344 17.828125 15.4375 C 17.851562 15.351562 17.875 15.261719 17.90625 15.179688 C 17.9375 15.09375 17.976562 15.011719 18.011719 14.929688 C 18.058594 14.851562 18.097656 14.769531 18.152344 14.695312 C 18.199219 14.621094 18.253906 14.550781 18.3125 14.480469 C 18.367188 14.410156 18.4375 14.351562 18.496094 14.289062 C 18.441406 14.359375 18.378906 14.421875 18.328125 14.496094 C 18.277344 14.566406 18.226562 14.640625 18.183594 14.71875 C 18.136719 14.792969 18.105469 14.875 18.066406 14.953125 C 18.035156 15.035156 18 15.117188 17.976562 15.203125 C 17.949219 15.285156 17.929688 15.371094 17.910156 15.457031 C 17.894531 15.542969 17.882812 15.628906 17.871094 15.714844 C 17.855469 15.886719 17.855469 16.066406 17.878906 16.234375 L 17.882812 16.28125 L 17.835938 16.296875 C 17.734375 16.332031 17.636719 16.367188 17.539062 16.410156 C 17.496094 16.433594 17.445312 16.453125 17.40625 16.484375 C 17.359375 16.511719 17.320312 16.542969 17.285156 16.574219 C 17.210938 16.636719 17.15625 16.71875 17.136719 16.808594 C 17.128906 16.851562 17.128906 16.898438 17.132812 16.945312 C 17.140625 16.992188 17.152344 17.039062 17.167969 17.082031 C 17.246094 17.265625 17.382812 17.429688 17.535156 17.578125 C 17.683594 17.722656 17.851562 17.855469 18.027344 17.976562 L 18.039062 17.984375 C 18.105469 18.042969 18.167969 18.113281 18.246094 18.160156 C 18.316406 18.21875 18.394531 18.257812 18.472656 18.296875 L 18.597656 18.339844 L 18.726562 18.359375 C 18.769531 18.355469 18.8125 18.359375 18.855469 18.351562 C 18.894531 18.339844 18.9375 18.339844 18.980469 18.320312 C 19.144531 18.265625 19.292969 18.15625 19.421875 18.027344 C 19.488281 17.960938 19.546875 17.890625 19.605469 17.820312 C 19.660156 17.746094 19.71875 17.671875 19.765625 17.59375 C 19.972656 17.28125 20.132812 16.9375 20.277344 16.585938 C 20.421875 16.238281 20.546875 15.878906 20.65625 15.515625 "/>
<path style=" stroke:none;fill-rule:nonzero;fill:rgb(96.859741%,71.759033%,56.469727%);fill-opacity:1;" d="M 24.136719 38.496094 C 24.136719 38.496094 22.589844 34.964844 14.96875 34.964844 C 14.886719 34.964844 14.808594 34.964844 14.726562 34.964844 C 14.726562 34.964844 16.859375 34.152344 19.289062 34.152344 C 21.566406 34.152344 24.101562 34.867188 25.363281 37.640625 L 24.136719 38.496094 "/>
<g clip-path="url(#clip3)" clip-rule="nonzero">
<path style=" stroke:none;fill-rule:nonzero;fill:rgb(10.198975%,18.03894%,30.979919%);fill-opacity:1;" d="M 52.960938 74.925781 C 52.921875 74.871094 52.886719 74.8125 52.847656 74.757812 L 28.722656 73.894531 L 28.722656 74.925781 L 52.960938 74.925781 "/>
</g>
<g clip-path="url(#clip4)" clip-rule="nonzero">
<path style=" stroke:none;fill-rule:nonzero;fill:rgb(8.628845%,15.289307%,26.269531%);fill-opacity:1;" d="M 30.421875 74.925781 L 28.722656 74.925781 L 28.722656 74.519531 C 28.996094 74.589844 29.585938 74.738281 30.421875 74.925781 "/>
</g>
<g clip-path="url(#clip5)" clip-rule="nonzero">
<path style=" stroke:none;fill-rule:nonzero;fill:rgb(35.289001%,78.42865%,76.858521%);fill-opacity:1;" d="M 26.425781 62.230469 C 26.425781 62.230469 28.320312 71.257812 28.554688 74.476562 C 28.554688 74.476562 29.242188 74.660156 30.421875 74.925781 L 53.539062 74.925781 C 53.378906 72.992188 53.027344 68.945312 52.847656 68.078125 L 53.242188 67.835938 C 54.976562 66.074219 57.824219 59.640625 57.824219 59.640625 C 57.824219 59.640625 62.875 56.421875 65.398438 50.378906 C 65.398438 50.378906 66.660156 37.738281 61.535156 33.109375 L 58.898438 31.851562 C 58.898438 31.851562 40.484375 36.871094 35.152344 35.773438 L 34.234375 35.054688 C 34.234375 35.054688 32.816406 36.5625 31.632812 36.089844 C 31.632812 36.089844 22.085938 46.296875 25.949219 55.007812 C 25.949219 55.007812 25.636719 59.328125 26.425781 62.230469 "/>
</g>
<path style=" stroke:none;fill-rule:nonzero;fill:rgb(95.289612%,60.778809%,41.569519%);fill-opacity:1;" d="M 53.046875 19.96875 C 53.046875 19.96875 53.617188 24.773438 53.046875 28.859375 C 53.046875 28.859375 56.53125 30.175781 58.898438 32.371094 C 58.898438 32.371094 37.488281 52.363281 33.753906 36.714844 C 33.753906 36.714844 38.542969 33.316406 40.59375 33.054688 C 40.59375 33.054688 41.160156 28.441406 41.957031 27.242188 L 52.214844 19.4375 L 53.046875 19.96875 "/>
<path style=" stroke:none;fill-rule:nonzero;fill:rgb(82.348633%,59.21936%,44.709778%);fill-opacity:1;" d="M 41.132812 29.804688 L 41.355469 28.570312 C 41.378906 28.578125 41.402344 28.585938 41.425781 28.59375 C 41.320312 28.972656 41.222656 29.386719 41.132812 29.804688 M 53.261719 22.910156 C 53.214844 21.710938 53.128906 20.757812 53.082031 20.289062 C 53.101562 20.296875 53.121094 20.304688 53.144531 20.3125 C 53.261719 21.539062 53.285156 22.847656 53.285156 22.847656 C 53.277344 22.867188 53.269531 22.890625 53.261719 22.910156 "/>
<path style=" stroke:none;fill-rule:nonzero;fill:rgb(81.568909%,49.798584%,32.159424%);fill-opacity:1;" d="M 44.101562 30.390625 C 42.101562 30.390625 41.132812 29.8125 41.132812 29.8125 L 41.132812 29.804688 C 41.222656 29.386719 41.320312 28.972656 41.425781 28.59375 C 41.9375 28.746094 42.636719 28.859375 43.570312 28.859375 C 44.136719 28.859375 44.789062 28.820312 45.542969 28.714844 C 45.542969 28.714844 50.347656 25.121094 51.644531 22.996094 C 51.644531 22.996094 52.039062 21.65625 52.46875 19.820312 C 52.640625 20.023438 52.84375 20.183594 53.082031 20.289062 C 53.128906 20.757812 53.214844 21.710938 53.261719 22.910156 C 51.714844 27.3125 45.753906 30.269531 45.753906 30.269531 C 45.140625 30.355469 44.589844 30.390625 44.101562 30.390625 "/>
<path style=" stroke:none;fill-rule:nonzero;fill:rgb(95.289612%,60.778809%,41.569519%);fill-opacity:1;" d="M 38.671875 11.375 L 38.285156 15.046875 C 38.285156 15.046875 39.058594 16.820312 38.285156 17.761719 C 38.285156 17.761719 37.375 19.695312 38.671875 22.425781 C 38.671875 22.425781 40.285156 25.925781 40.144531 27.878906 C 40.144531 27.878906 41.160156 29.308594 45.542969 28.714844 C 45.542969 28.714844 50.347656 25.121094 51.644531 22.996094 C 51.644531 22.996094 53.785156 15.738281 53.503906 11.832031 C 53.503906 11.832031 52.171875 4.570312 46.105469 4.433594 C 46.105469 4.433594 39.96875 3.699219 38.671875 11.375 "/>
<path style=" stroke:none;fill-rule:nonzero;fill:rgb(100%,100%,100%);fill-opacity:1;" d="M 40.863281 16.078125 C 40.863281 16.078125 39.949219 13.5625 39.074219 16.078125 C 39.074219 16.078125 39.601562 17.753906 40.863281 17.023438 "/>
<path style=" stroke:none;fill-rule:nonzero;fill:rgb(18.818665%,14.509583%,13.328552%);fill-opacity:1;" d="M 40.863281 16.078125 C 40.765625 15.847656 40.648438 15.625 40.503906 15.421875 C 40.433594 15.320312 40.355469 15.226562 40.265625 15.144531 C 40.171875 15.066406 40.0625 15.003906 39.949219 14.996094 C 39.890625 15 39.835938 15.003906 39.785156 15.03125 C 39.757812 15.042969 39.730469 15.058594 39.707031 15.074219 C 39.683594 15.089844 39.660156 15.109375 39.636719 15.128906 C 39.59375 15.167969 39.554688 15.21875 39.515625 15.261719 C 39.484375 15.3125 39.445312 15.359375 39.414062 15.414062 C 39.351562 15.519531 39.296875 15.632812 39.25 15.746094 C 39.199219 15.859375 39.15625 15.976562 39.113281 16.09375 L 39.113281 16.066406 C 39.144531 16.15625 39.183594 16.246094 39.222656 16.335938 C 39.265625 16.421875 39.3125 16.507812 39.367188 16.589844 C 39.394531 16.628906 39.417969 16.671875 39.449219 16.710938 C 39.480469 16.746094 39.507812 16.785156 39.542969 16.820312 C 39.574219 16.855469 39.609375 16.894531 39.644531 16.925781 L 39.753906 17.015625 L 39.878906 17.089844 C 39.921875 17.117188 39.96875 17.125 40.015625 17.144531 C 40.058594 17.164062 40.105469 17.164062 40.15625 17.175781 L 40.226562 17.1875 L 40.300781 17.183594 C 40.347656 17.179688 40.398438 17.183594 40.445312 17.171875 L 40.589844 17.136719 C 40.636719 17.128906 40.679688 17.101562 40.726562 17.082031 L 40.863281 17.023438 L 40.730469 17.089844 C 40.683594 17.113281 40.644531 17.140625 40.59375 17.152344 L 40.453125 17.199219 C 40.402344 17.214844 40.351562 17.214844 40.300781 17.21875 L 40.226562 17.226562 L 40.148438 17.21875 C 40.097656 17.210938 40.046875 17.214844 40 17.191406 C 39.953125 17.175781 39.902344 17.164062 39.855469 17.140625 L 39.71875 17.066406 L 39.597656 16.976562 C 39.558594 16.941406 39.527344 16.90625 39.488281 16.871094 C 39.453125 16.835938 39.421875 16.792969 39.390625 16.753906 C 39.355469 16.714844 39.332031 16.671875 39.300781 16.632812 C 39.246094 16.546875 39.195312 16.460938 39.152344 16.371094 C 39.109375 16.28125 39.066406 16.1875 39.035156 16.089844 L 39.03125 16.078125 L 39.035156 16.066406 C 39.078125 15.945312 39.121094 15.828125 39.171875 15.710938 C 39.222656 15.597656 39.28125 15.484375 39.347656 15.375 C 39.375 15.316406 39.417969 15.265625 39.453125 15.214844 C 39.496094 15.164062 39.535156 15.113281 39.585938 15.070312 C 39.609375 15.050781 39.636719 15.03125 39.664062 15.011719 C 39.691406 14.992188 39.722656 14.976562 39.753906 14.964844 C 39.8125 14.933594 39.886719 14.925781 39.953125 14.925781 C 40.089844 14.9375 40.207031 15.015625 40.304688 15.101562 C 40.398438 15.1875 40.472656 15.292969 40.542969 15.398438 C 40.679688 15.609375 40.78125 15.84375 40.863281 16.078125 "/>
<path style=" stroke:none;fill-rule:nonzero;fill:rgb(100%,100%,100%);fill-opacity:1;" d="M 40.863281 21.738281 C 40.863281 21.738281 44.597656 22.367188 47.015625 21.285156 C 47.015625 21.285156 44.949219 24.179688 41.511719 23.449219 C 41.511719 23.449219 41.757812 22.15625 40.863281 21.738281 "/>
<path style=" stroke:none;fill-rule:nonzero;fill:rgb(18.818665%,14.509583%,13.328552%);fill-opacity:1;" d="M 41.511719 14.902344 L 41.160156 16.085938 C 41.160156 16.085938 39.722656 12.386719 38.425781 15.074219 C 38.425781 15.074219 40.003906 11.304688 41.125 14.515625 C 41.125 14.515625 41.125 14.910156 41.511719 14.902344 "/>
<path style=" stroke:none;fill-rule:nonzero;fill:rgb(18.818665%,14.509583%,13.328552%);fill-opacity:1;" d="M 40.914062 16.179688 C 40.914062 16.5 40.769531 16.757812 40.59375 16.757812 C 40.417969 16.757812 40.273438 16.5 40.273438 16.179688 C 40.273438 15.859375 40.417969 15.597656 40.59375 15.597656 C 40.769531 15.597656 40.914062 15.859375 40.914062 16.179688 "/>
<path style=" stroke:none;fill-rule:nonzero;fill:rgb(100%,100%,100%);fill-opacity:1;" d="M 44.492188 16.867188 L 44.964844 15.816406 C 44.964844 15.816406 47.636719 14.777344 48.980469 16.574219 C 48.980469 16.574219 48.6875 18.242188 44.492188 17.492188 "/>
<path style=" stroke:none;fill-rule:nonzero;fill:rgb(18.818665%,14.509583%,13.328552%);fill-opacity:1;" d="M 44.492188 16.867188 L 44.945312 15.804688 L 44.949219 15.796875 L 44.957031 15.792969 C 45.128906 15.726562 45.304688 15.675781 45.484375 15.632812 C 45.660156 15.585938 45.839844 15.550781 46.023438 15.527344 C 46.113281 15.511719 46.203125 15.5 46.296875 15.496094 C 46.386719 15.488281 46.480469 15.476562 46.570312 15.476562 C 46.664062 15.480469 46.757812 15.472656 46.847656 15.480469 L 47.125 15.5 L 47.398438 15.546875 C 47.492188 15.558594 47.578125 15.59375 47.667969 15.613281 L 47.800781 15.652344 L 47.929688 15.707031 C 48.015625 15.746094 48.105469 15.773438 48.183594 15.824219 L 48.421875 15.964844 C 48.5 16.015625 48.566406 16.082031 48.640625 16.140625 L 48.746094 16.230469 L 48.839844 16.332031 L 49.023438 16.542969 L 49.035156 16.558594 L 49.03125 16.582031 C 49.003906 16.695312 48.953125 16.785156 48.890625 16.875 C 48.832031 16.964844 48.757812 17.042969 48.679688 17.113281 C 48.601562 17.179688 48.519531 17.246094 48.425781 17.296875 C 48.339844 17.359375 48.242188 17.398438 48.148438 17.441406 C 48.054688 17.488281 47.953125 17.511719 47.855469 17.546875 C 47.757812 17.582031 47.652344 17.597656 47.550781 17.621094 L 47.402344 17.652344 L 47.246094 17.671875 C 47.144531 17.683594 47.042969 17.699219 46.9375 17.703125 C 46.734375 17.707031 46.527344 17.726562 46.324219 17.714844 C 46.117188 17.703125 45.910156 17.703125 45.707031 17.675781 C 45.503906 17.648438 45.296875 17.636719 45.097656 17.597656 L 44.492188 17.492188 L 45.101562 17.574219 C 45.304688 17.605469 45.507812 17.609375 45.710938 17.628906 C 45.8125 17.636719 45.914062 17.644531 46.015625 17.644531 L 46.324219 17.648438 C 46.527344 17.660156 46.730469 17.636719 46.933594 17.628906 C 47.035156 17.621094 47.132812 17.601562 47.234375 17.589844 L 47.386719 17.570312 L 47.535156 17.535156 C 47.632812 17.511719 47.734375 17.496094 47.828125 17.460938 C 47.921875 17.425781 48.023438 17.402344 48.109375 17.355469 C 48.199219 17.3125 48.292969 17.273438 48.375 17.21875 C 48.464844 17.167969 48.539062 17.105469 48.617188 17.042969 C 48.6875 16.972656 48.753906 16.902344 48.808594 16.820312 C 48.863281 16.742188 48.910156 16.648438 48.929688 16.566406 L 48.941406 16.605469 L 48.761719 16.402344 L 48.675781 16.304688 L 48.570312 16.214844 C 48.503906 16.160156 48.4375 16.097656 48.363281 16.046875 L 48.136719 15.910156 C 48.058594 15.859375 47.972656 15.832031 47.894531 15.796875 L 47.769531 15.742188 L 47.640625 15.703125 C 47.554688 15.683594 47.46875 15.648438 47.378906 15.636719 L 47.113281 15.589844 L 46.84375 15.566406 C 46.753906 15.558594 46.664062 15.566406 46.574219 15.5625 C 46.484375 15.558594 46.394531 15.566406 46.300781 15.570312 C 46.210938 15.574219 46.121094 15.585938 46.03125 15.597656 C 45.851562 15.617188 45.671875 15.648438 45.496094 15.691406 C 45.320312 15.730469 45.144531 15.777344 44.972656 15.835938 L 44.984375 15.824219 L 44.492188 16.867188 "/>
<path style=" stroke:none;fill-rule:nonzero;fill:rgb(18.818665%,14.509583%,13.328552%);fill-opacity:1;" d="M 48.394531 16.503906 C 48.394531 16.957031 48.054688 17.324219 47.636719 17.324219 C 47.222656 17.324219 46.882812 16.957031 46.882812 16.503906 C 46.882812 16.050781 47.222656 15.683594 47.636719 15.683594 C 48.054688 15.683594 48.394531 16.050781 48.394531 16.503906 "/>
<path style=" stroke:none;fill-rule:nonzero;fill:rgb(74.899292%,42.349243%,24.708557%);fill-opacity:1;" d="M 41.957031 16.636719 C 41.957031 16.636719 40.539062 17.917969 39.539062 20.585938 L 40.832031 21.285156 L 40.144531 20.507812 C 40.144531 20.507812 41.378906 17.214844 41.957031 16.636719 "/>
<path style=" stroke:none;fill-rule:nonzero;fill:rgb(18.818665%,14.509583%,13.328552%);fill-opacity:1;" d="M 40.933594 21.398438 C 40.660156 21.109375 40.386719 20.820312 40.121094 20.527344 L 40.109375 20.515625 L 40.117188 20.5 C 40.207031 20.191406 40.316406 19.890625 40.425781 19.589844 C 40.535156 19.289062 40.652344 18.992188 40.777344 18.695312 C 40.902344 18.398438 41.03125 18.109375 41.183594 17.824219 C 41.257812 17.683594 41.335938 17.542969 41.425781 17.40625 C 41.511719 17.273438 41.609375 17.140625 41.722656 17.027344 C 41.617188 17.148438 41.53125 17.285156 41.453125 17.425781 C 41.378906 17.5625 41.300781 17.703125 41.234375 17.847656 C 41.097656 18.136719 40.972656 18.429688 40.851562 18.726562 C 40.730469 19.023438 40.617188 19.320312 40.5 19.617188 L 40.171875 20.515625 L 40.167969 20.488281 C 40.425781 20.789062 40.679688 21.09375 40.933594 21.398438 "/>
<path style=" stroke:none;fill-rule:nonzero;fill:rgb(74.899292%,42.349243%,24.708557%);fill-opacity:1;" d="M 40.59375 21.632812 C 40.59375 21.632812 40.707031 21.65625 40.90625 21.6875 C 41.101562 21.71875 41.386719 21.753906 41.730469 21.785156 C 41.902344 21.804688 42.085938 21.816406 42.28125 21.828125 C 42.480469 21.84375 42.6875 21.839844 42.902344 21.851562 C 43.113281 21.851562 43.335938 21.855469 43.5625 21.847656 C 43.785156 21.835938 44.015625 21.835938 44.242188 21.808594 L 44.585938 21.785156 C 44.699219 21.769531 44.808594 21.757812 44.921875 21.742188 C 45.035156 21.730469 45.144531 21.71875 45.253906 21.703125 C 45.363281 21.679688 45.46875 21.660156 45.574219 21.644531 C 45.679688 21.625 45.785156 21.605469 45.882812 21.585938 C 45.984375 21.5625 46.082031 21.539062 46.179688 21.515625 C 46.371094 21.472656 46.550781 21.429688 46.714844 21.375 C 46.878906 21.328125 47.03125 21.28125 47.164062 21.242188 C 47.292969 21.191406 47.40625 21.152344 47.5 21.117188 C 47.691406 21.046875 47.796875 21.003906 47.796875 21.003906 C 47.796875 21.003906 47.691406 21.050781 47.507812 21.132812 C 47.417969 21.171875 47.304688 21.222656 47.175781 21.277344 C 47.046875 21.328125 46.894531 21.378906 46.734375 21.433594 C 46.570312 21.496094 46.390625 21.542969 46.199219 21.59375 C 46.101562 21.621094 46.003906 21.644531 45.902344 21.671875 C 45.800781 21.699219 45.699219 21.714844 45.59375 21.734375 C 45.484375 21.753906 45.378906 21.777344 45.269531 21.796875 C 45.160156 21.816406 45.046875 21.828125 44.933594 21.84375 C 44.820312 21.859375 44.710938 21.875 44.59375 21.890625 L 44.25 21.917969 C 44.023438 21.941406 43.792969 21.941406 43.5625 21.949219 C 43.335938 21.953125 43.113281 21.945312 42.898438 21.945312 C 42.683594 21.933594 42.472656 21.925781 42.277344 21.90625 C 42.078125 21.886719 41.894531 21.867188 41.722656 21.84375 C 41.378906 21.804688 41.097656 21.746094 40.902344 21.703125 C 40.703125 21.664062 40.59375 21.632812 40.59375 21.632812 "/>
<path style=" stroke:none;fill-rule:nonzero;fill:rgb(74.899292%,42.349243%,24.708557%);fill-opacity:1;" d="M 46.875 20.640625 C 46.875 20.640625 46.988281 20.652344 47.152344 20.707031 C 47.230469 20.734375 47.324219 20.773438 47.417969 20.824219 C 47.511719 20.871094 47.609375 20.9375 47.699219 21.007812 C 47.785156 21.082031 47.871094 21.160156 47.9375 21.242188 C 47.972656 21.285156 48.003906 21.328125 48.027344 21.371094 C 48.050781 21.414062 48.078125 21.453125 48.09375 21.492188 C 48.128906 21.570312 48.148438 21.640625 48.160156 21.6875 C 48.167969 21.738281 48.171875 21.765625 48.171875 21.765625 C 48.171875 21.765625 48.160156 21.742188 48.132812 21.699219 C 48.121094 21.675781 48.109375 21.648438 48.09375 21.621094 C 48.074219 21.59375 48.050781 21.5625 48.027344 21.53125 C 48.007812 21.496094 47.972656 21.464844 47.949219 21.425781 C 47.921875 21.390625 47.882812 21.355469 47.851562 21.320312 C 47.820312 21.28125 47.777344 21.25 47.738281 21.210938 C 47.703125 21.175781 47.65625 21.144531 47.617188 21.109375 C 47.449219 20.972656 47.261719 20.859375 47.121094 20.773438 C 46.976562 20.691406 46.875 20.640625 46.875 20.640625 "/>
<path style=" stroke:none;fill-rule:nonzero;fill:rgb(74.899292%,42.349243%,24.708557%);fill-opacity:1;" d="M 41.078125 23.335938 C 41.078125 23.335938 41.175781 23.367188 41.355469 23.402344 C 41.445312 23.425781 41.554688 23.441406 41.679688 23.464844 C 41.804688 23.476562 41.945312 23.5 42.101562 23.507812 C 42.257812 23.527344 42.425781 23.527344 42.605469 23.53125 C 42.78125 23.53125 42.96875 23.515625 43.160156 23.503906 C 43.355469 23.472656 43.554688 23.460938 43.753906 23.410156 C 43.851562 23.386719 43.953125 23.363281 44.050781 23.34375 L 44.34375 23.246094 C 44.546875 23.191406 44.730469 23.09375 44.917969 23.015625 C 45.011719 22.980469 45.097656 22.925781 45.183594 22.878906 C 45.269531 22.828125 45.355469 22.777344 45.441406 22.730469 C 45.605469 22.628906 45.75 22.507812 45.894531 22.40625 C 46.046875 22.308594 46.15625 22.183594 46.273438 22.082031 C 46.386719 21.972656 46.5 21.886719 46.578125 21.785156 C 46.664062 21.691406 46.734375 21.609375 46.796875 21.539062 C 46.917969 21.402344 46.988281 21.324219 46.988281 21.324219 C 46.988281 21.324219 46.921875 21.40625 46.8125 21.550781 C 46.753906 21.625 46.6875 21.710938 46.609375 21.8125 C 46.535156 21.917969 46.425781 22.011719 46.316406 22.125 C 46.203125 22.230469 46.09375 22.363281 45.945312 22.46875 C 45.800781 22.578125 45.660156 22.707031 45.492188 22.808594 C 45.40625 22.859375 45.320312 22.910156 45.230469 22.960938 C 45.144531 23.015625 45.058594 23.070312 44.960938 23.109375 C 44.769531 23.191406 44.585938 23.292969 44.378906 23.347656 L 44.078125 23.441406 C 43.976562 23.464844 43.875 23.488281 43.773438 23.507812 C 43.570312 23.558594 43.367188 23.570312 43.171875 23.597656 C 42.972656 23.609375 42.78125 23.617188 42.601562 23.609375 C 42.421875 23.601562 42.25 23.589844 42.09375 23.570312 C 41.9375 23.558594 41.796875 23.523438 41.671875 23.5 C 41.546875 23.472656 41.4375 23.449219 41.351562 23.421875 C 41.175781 23.375 41.078125 23.335938 41.078125 23.335938 "/>
<path style=" stroke:none;fill-rule:nonzero;fill:rgb(74.899292%,42.349243%,24.708557%);fill-opacity:1;" d="M 41.722656 24.121094 C 41.722656 24.121094 42.582031 24.644531 43.941406 24.851562 C 43.941406 24.851562 42.40625 25.925781 41.722656 24.121094 "/>
<path style=" stroke:none;fill-rule:nonzero;fill:rgb(18.818665%,14.509583%,13.328552%);fill-opacity:1;" d="M 41.265625 21.203125 C 41.265625 21.203125 41.914062 20.917969 42.195312 21.109375 C 42.195312 21.109375 41.617188 21.277344 41.265625 21.203125 "/>
<path style=" stroke:none;fill-rule:nonzero;fill:rgb(38.42926%,24.708557%,19.60907%);fill-opacity:1;" d="M 53.402344 14.652344 C 53.402344 14.652344 52.277344 16.914062 51.574219 17.320312 C 51.574219 17.320312 51.15625 17.054688 51.121094 16.34375 C 51.121094 16.34375 51.996094 10.257812 51.121094 8.585938 C 51.121094 8.585938 45.160156 7.714844 43.582031 8.585938 C 43.582031 8.585938 40.425781 8.890625 39.953125 7.691406 C 39.953125 7.691406 38.222656 3.699219 41.078125 1.46875 C 41.078125 1.46875 47.652344 0.0703125 50.4375 3.105469 C 50.4375 3.105469 54.203125 5.792969 55.921875 6.421875 C 55.921875 6.421875 59.324219 8.515625 60.832031 7.992188 C 60.832031 7.992188 59.046875 10.851562 58.097656 11.0625 C 58.097656 11.0625 59.675781 10.292969 60.273438 9.804688 C 60.273438 9.804688 57.480469 18.542969 54.871094 19.609375 L 53.402344 14.652344 "/>
<path style=" stroke:none;fill-rule:nonzero;fill:rgb(95.289612%,60.778809%,41.569519%);fill-opacity:1;" d="M 56.300781 18.007812 C 55.753906 19.671875 54.378906 20.714844 53.222656 20.339844 C 52.070312 19.96875 51.574219 18.316406 52.117188 16.652344 C 52.664062 14.988281 54.042969 13.945312 55.195312 14.320312 C 56.351562 14.695312 56.847656 16.347656 56.300781 18.007812 "/>
<path style=" stroke:none;fill-rule:nonzero;fill:rgb(82.749939%,49.798584%,31.759644%);fill-opacity:1;" d="M 53.53125 19.214844 L 53.28125 19.214844 L 53.046875 18.960938 C 55.046875 17.859375 53.046875 17.027344 53.046875 17.027344 L 53.332031 16.34375 C 53.777344 15.523438 54.140625 15.234375 54.429688 15.234375 C 55.148438 15.234375 55.425781 17.027344 55.425781 17.027344 L 54.871094 16.085938 C 55.359375 17.3125 54.925781 17.800781 54.925781 17.800781 C 54.964844 17.484375 54.765625 16.757812 54.765625 16.757812 C 55.117188 18.285156 53.53125 19.214844 53.53125 19.214844 "/>
<path style=" stroke:none;fill-rule:nonzero;fill:rgb(74.899292%,42.349243%,24.708557%);fill-opacity:1;" d="M 55.292969 16.085938 C 55.230469 15.945312 55.152344 15.8125 55.0625 15.6875 C 54.972656 15.5625 54.875 15.445312 54.75 15.359375 C 54.632812 15.273438 54.484375 15.226562 54.34375 15.25 C 54.273438 15.261719 54.207031 15.289062 54.144531 15.328125 C 54.082031 15.363281 54.023438 15.414062 53.96875 15.460938 C 53.867188 15.566406 53.773438 15.6875 53.691406 15.8125 C 53.609375 15.941406 53.535156 16.074219 53.464844 16.207031 C 53.398438 16.34375 53.335938 16.484375 53.277344 16.625 C 53.214844 16.765625 53.164062 16.910156 53.109375 17.050781 L 53.074219 16.96875 C 53.1875 17.015625 53.292969 17.074219 53.394531 17.136719 C 53.5 17.203125 53.597656 17.273438 53.691406 17.351562 C 53.78125 17.433594 53.867188 17.523438 53.933594 17.628906 C 53.96875 17.683594 53.996094 17.742188 54.015625 17.800781 C 54.035156 17.863281 54.046875 17.925781 54.046875 17.992188 C 54.046875 18.058594 54.035156 18.121094 54.015625 18.183594 C 53.996094 18.246094 53.964844 18.300781 53.929688 18.351562 C 53.894531 18.40625 53.855469 18.453125 53.8125 18.496094 C 53.769531 18.542969 53.722656 18.582031 53.675781 18.621094 C 53.488281 18.773438 53.277344 18.886719 53.0625 18.992188 L 53.078125 18.941406 C 53.121094 19.007812 53.167969 19.074219 53.226562 19.128906 C 53.253906 19.15625 53.28125 19.1875 53.316406 19.210938 C 53.347656 19.234375 53.378906 19.265625 53.414062 19.28125 L 53.519531 19.34375 C 53.554688 19.359375 53.59375 19.371094 53.632812 19.386719 L 53.691406 19.40625 L 53.75 19.417969 L 53.871094 19.4375 L 53.75 19.425781 C 53.707031 19.425781 53.667969 19.421875 53.625 19.40625 C 53.585938 19.394531 53.546875 19.386719 53.507812 19.371094 L 53.394531 19.3125 C 53.355469 19.296875 53.324219 19.265625 53.289062 19.246094 C 53.253906 19.222656 53.222656 19.195312 53.191406 19.164062 C 53.128906 19.109375 53.070312 19.046875 53.019531 18.976562 L 53 18.949219 L 53.035156 18.929688 C 53.242188 18.820312 53.441406 18.699219 53.617188 18.550781 C 53.660156 18.511719 53.699219 18.472656 53.738281 18.429688 C 53.777344 18.386719 53.808594 18.34375 53.839844 18.296875 C 53.867188 18.25 53.894531 18.199219 53.910156 18.148438 C 53.925781 18.097656 53.933594 18.042969 53.933594 17.992188 C 53.933594 17.777344 53.78125 17.589844 53.609375 17.445312 C 53.4375 17.296875 53.230469 17.179688 53.023438 17.085938 L 52.964844 17.0625 L 52.988281 17.003906 C 53.046875 16.863281 53.097656 16.71875 53.164062 16.574219 C 53.222656 16.433594 53.292969 16.292969 53.359375 16.15625 C 53.433594 16.015625 53.507812 15.882812 53.597656 15.753906 C 53.683594 15.621094 53.785156 15.5 53.902344 15.390625 C 53.964844 15.339844 54.027344 15.289062 54.097656 15.25 C 54.171875 15.210938 54.25 15.179688 54.332031 15.171875 C 54.5 15.148438 54.664062 15.210938 54.789062 15.3125 C 54.914062 15.410156 55.007812 15.539062 55.09375 15.667969 C 55.171875 15.800781 55.242188 15.9375 55.292969 16.085938 "/>
<path style=" stroke:none;fill-rule:nonzero;fill:rgb(74.899292%,42.349243%,24.708557%);fill-opacity:1;" d="M 55.082031 17.207031 C 55.082031 17.207031 55.058594 17.058594 55.003906 16.84375 C 54.976562 16.738281 54.933594 16.613281 54.882812 16.488281 C 54.855469 16.425781 54.828125 16.359375 54.789062 16.296875 C 54.757812 16.230469 54.714844 16.175781 54.671875 16.117188 C 54.628906 16.058594 54.574219 16.007812 54.523438 15.960938 C 54.464844 15.921875 54.417969 15.871094 54.351562 15.851562 C 54.320312 15.839844 54.289062 15.824219 54.261719 15.8125 C 54.230469 15.800781 54.199219 15.796875 54.167969 15.792969 C 54.136719 15.785156 54.109375 15.777344 54.078125 15.769531 C 54.050781 15.769531 54.023438 15.769531 53.996094 15.769531 C 53.941406 15.773438 53.886719 15.765625 53.84375 15.773438 C 53.796875 15.78125 53.761719 15.789062 53.726562 15.792969 C 53.664062 15.804688 53.625 15.808594 53.625 15.808594 C 53.625 15.808594 53.660156 15.796875 53.722656 15.777344 C 53.753906 15.769531 53.792969 15.757812 53.839844 15.742188 C 53.882812 15.726562 53.9375 15.730469 53.992188 15.722656 C 54.023438 15.71875 54.050781 15.714844 54.082031 15.714844 C 54.113281 15.71875 54.144531 15.722656 54.179688 15.726562 C 54.210938 15.734375 54.246094 15.734375 54.28125 15.742188 C 54.316406 15.757812 54.347656 15.769531 54.382812 15.785156 C 54.453125 15.804688 54.511719 15.859375 54.578125 15.898438 C 54.632812 15.949219 54.695312 16.003906 54.738281 16.0625 C 54.785156 16.125 54.828125 16.1875 54.863281 16.257812 C 54.898438 16.324219 54.925781 16.394531 54.953125 16.460938 C 55.003906 16.59375 55.03125 16.722656 55.050781 16.832031 C 55.089844 17.058594 55.082031 17.207031 55.082031 17.207031 "/>
<path style=" stroke:none;fill-rule:nonzero;fill:rgb(48.629761%,31.759644%,25.878906%);fill-opacity:1;" d="M 40.75 8.097656 C 40.75 8.097656 39.058594 3.910156 41.511719 1.570312 L 40.75 8.097656 "/>
<path style=" stroke:none;fill-rule:nonzero;fill:rgb(48.629761%,31.759644%,25.878906%);fill-opacity:1;" d="M 41.511719 8.097656 C 41.511719 8.097656 42.738281 1.90625 46.664062 1.90625 C 46.78125 1.90625 46.898438 1.910156 47.015625 1.921875 L 41.511719 8.097656 "/>
<path style=" stroke:none;fill-rule:nonzero;fill:rgb(48.629761%,31.759644%,25.878906%);fill-opacity:1;" d="M 57.90625 8.832031 C 56.347656 8.832031 54 8.425781 50.875 6.78125 C 49.734375 6.179688 48.640625 5.953125 47.644531 5.953125 C 44.722656 5.953125 42.632812 7.886719 42.632812 7.886719 C 42.632812 7.886719 45.359375 5.074219 49.214844 5.074219 C 50.402344 5.074219 51.695312 5.339844 53.046875 6.039062 C 53.046875 6.039062 57.335938 8.488281 59.707031 8.488281 C 59.882812 8.488281 60.050781 8.472656 60.203125 8.445312 C 60.203125 8.445312 59.433594 8.832031 57.90625 8.832031 "/>
<path style=" stroke:none;fill-rule:nonzero;fill:rgb(91.758728%,83.918762%,79.998779%);fill-opacity:1;" d="M 59.363281 12.339844 C 59.363281 12.339844 59.363281 12.335938 59.367188 12.332031 L 59.363281 12.339844 "/>
<path style=" stroke:none;fill-rule:nonzero;fill:rgb(89.408875%,58.428955%,43.139648%);fill-opacity:1;" d="M 51.484375 12.457031 L 51.484375 10.382812 C 51.523438 11.023438 51.515625 11.746094 51.484375 12.457031 "/>
<path style=" stroke:none;fill-rule:nonzero;fill:rgb(48.629761%,31.759644%,25.878906%);fill-opacity:1;" d="M 56.128906 13.949219 C 55.34375 13.949219 54.863281 13.433594 55.425781 11.726562 C 55.847656 10.441406 55.664062 9.992188 55.199219 9.992188 C 54.113281 9.992188 51.484375 12.464844 51.484375 12.464844 L 51.484375 12.457031 C 51.515625 11.746094 51.523438 11.023438 51.484375 10.382812 L 51.484375 10.378906 C 51.484375 10.378906 53.199219 9.554688 54.628906 9.554688 C 55.632812 9.554688 56.496094 9.960938 56.523438 11.339844 C 56.523438 11.339844 56.003906 12.921875 57.382812 12.921875 C 57.824219 12.921875 58.457031 12.761719 59.367188 12.332031 C 59.363281 12.335938 59.363281 12.339844 59.363281 12.339844 L 59.191406 12.773438 C 59.191406 12.773438 57.316406 13.949219 56.128906 13.949219 "/>
<path style=" stroke:none;fill-rule:nonzero;fill:rgb(76.078796%,45.489502%,28.62854%);fill-opacity:1;" d="M 33.957031 37.46875 C 33.957031 37.46875 40.035156 37.503906 41.078125 38.496094 C 41.078125 38.496094 50.804688 36.5625 52.800781 37.269531 L 53.53125 36.742188 C 53.53125 36.742188 49.957031 35.503906 45.066406 35.828125 C 43.945312 35.898438 41.992188 37.082031 40.914062 37.621094 L 39.433594 36.820312 C 39.433594 36.820312 36.515625 36.886719 33.898438 37.273438 L 33.957031 37.46875 "/>
<path style=" stroke:none;fill-rule:nonzero;fill:rgb(74.899292%,42.349243%,24.708557%);fill-opacity:1;" d="M 52.375 31.066406 C 52.375 31.066406 52.394531 31.023438 52.425781 30.949219 C 52.460938 30.875 52.496094 30.761719 52.546875 30.632812 C 52.570312 30.566406 52.59375 30.492188 52.617188 30.417969 C 52.644531 30.34375 52.667969 30.261719 52.691406 30.175781 C 52.71875 30.09375 52.742188 30.007812 52.769531 29.917969 C 52.792969 29.828125 52.8125 29.738281 52.835938 29.648438 C 52.855469 29.558594 52.886719 29.46875 52.902344 29.378906 C 52.921875 29.289062 52.9375 29.199219 52.957031 29.113281 C 52.972656 29.027344 52.988281 28.945312 53.007812 28.867188 C 53.023438 28.789062 53.035156 28.714844 53.046875 28.644531 C 53.089844 28.367188 53.132812 28.183594 53.132812 28.183594 C 53.132812 28.183594 53.132812 28.371094 53.117188 28.652344 C 53.113281 28.796875 53.097656 28.960938 53.066406 29.136719 C 53.050781 29.222656 53.039062 29.3125 53.023438 29.402344 C 53.007812 29.496094 52.980469 29.585938 52.960938 29.679688 C 52.9375 29.769531 52.914062 29.863281 52.886719 29.953125 C 52.859375 30.039062 52.828125 30.128906 52.800781 30.210938 C 52.75 30.382812 52.667969 30.53125 52.613281 30.660156 C 52.550781 30.789062 52.492188 30.890625 52.449219 30.960938 C 52.40625 31.03125 52.375 31.066406 52.375 31.066406 "/>
<path style=" stroke:none;fill-rule:nonzero;fill:rgb(18.818665%,14.509583%,13.328552%);fill-opacity:1;" d="M 43.636719 15.792969 L 44.996094 16.242188 C 44.996094 16.242188 48.878906 14.632812 50.117188 15.4375 C 50.117188 15.4375 48.484375 12.59375 44.914062 15.40625 C 44.914062 15.40625 44.414062 15.855469 43.636719 15.792969 "/>
<path style=" stroke:none;fill-rule:nonzero;fill:rgb(29.019165%,64.309692%,63.529968%);fill-opacity:1;" d="M 41.886719 60.277344 C 39.066406 60.277344 36.476562 58.980469 35.261719 54.929688 C 35.261719 54.929688 38.03125 57.847656 44.042969 57.847656 C 46.425781 57.847656 49.320312 57.390625 52.753906 56.109375 C 52.753906 56.109375 46.945312 60.277344 41.886719 60.277344 "/>
<path style=" stroke:none;fill-rule:nonzero;fill:rgb(29.019165%,64.309692%,63.529968%);fill-opacity:1;" d="M 25.894531 57.605469 C 25.894531 57.605469 25.894531 57.601562 25.894531 57.601562 L 25.949219 55.007812 C 25.949219 55.007812 26.714844 55.105469 27.722656 55.105469 C 28.957031 55.105469 30.554688 54.960938 31.554688 54.308594 C 31.554688 54.308594 28.28125 57.296875 25.894531 57.605469 "/>
<g clip-path="url(#clip6)" clip-rule="nonzero">
<path style=" stroke:none;fill-rule:nonzero;fill:rgb(95.289612%,60.778809%,41.569519%);fill-opacity:1;" d="M 59.324219 55.957031 L 61.453125 58.304688 C 61.453125 58.304688 60.273438 63.332031 63.269531 67.253906 C 63.269531 67.253906 64.136719 68.667969 63.820312 69.53125 C 63.820312 69.53125 62.492188 71.816406 61.410156 74.925781 L 72.84375 74.925781 C 72.996094 74.335938 73.082031 73.742188 73.085938 73.140625 C 73.085938 73.140625 75.339844 70.238281 74.707031 67.253906 L 73.683594 66.546875 C 73.683594 66.546875 75.339844 57.441406 70.765625 51.476562 C 70.765625 51.476562 74.808594 32.402344 60.832031 34.363281 C 60.832031 34.363281 54.273438 47.25 56.878906 55.957031 C 56.878906 55.957031 58.296875 58.628906 59.324219 55.957031 "/>
</g>
<path style=" stroke:none;fill-rule:nonzero;fill:rgb(76.078796%,45.489502%,28.62854%);fill-opacity:1;" d="M 56.878906 55.957031 C 56.878906 55.957031 58.296875 58.628906 59.324219 55.957031 C 59.324219 55.957031 57.078125 51.085938 57.253906 50.140625 L 60.171875 35.773438 C 58.578125 39.351562 54.796875 48.988281 56.878906 55.957031 "/>
<g clip-path="url(#clip7)" clip-rule="nonzero">
<path style=" stroke:none;fill-rule:nonzero;fill:rgb(96.859741%,71.759033%,56.469727%);fill-opacity:1;" d="M 71.507812 74.925781 L 70.796875 74.925781 C 71.300781 74.082031 71.613281 73.535156 71.613281 73.535156 C 71.617188 74.011719 71.578125 74.476562 71.507812 74.925781 "/>
</g>
<path style=" stroke:none;fill-rule:nonzero;fill:rgb(18.818665%,14.509583%,13.328552%);fill-opacity:1;" d="M 10.226562 37.136719 C 10.226562 37.136719 10.28125 37.105469 10.378906 37.058594 C 10.472656 37.007812 10.605469 36.933594 10.757812 36.839844 C 10.839844 36.796875 10.921875 36.742188 11.007812 36.6875 C 11.097656 36.636719 11.1875 36.570312 11.28125 36.511719 C 11.464844 36.378906 11.660156 36.242188 11.84375 36.085938 C 11.9375 36.011719 12.027344 35.933594 12.113281 35.851562 C 12.199219 35.773438 12.285156 35.691406 12.363281 35.613281 C 12.445312 35.535156 12.515625 35.453125 12.585938 35.378906 C 12.65625 35.304688 12.71875 35.230469 12.777344 35.160156 C 12.832031 35.089844 12.886719 35.023438 12.933594 34.96875 C 12.976562 34.90625 13.011719 34.855469 13.042969 34.8125 C 13.109375 34.726562 13.144531 34.679688 13.144531 34.679688 C 13.144531 34.679688 13.121094 34.734375 13.078125 34.832031 C 13.054688 34.878906 13.023438 34.9375 12.992188 35.003906 C 12.957031 35.070312 12.914062 35.144531 12.863281 35.222656 C 12.839844 35.261719 12.8125 35.300781 12.789062 35.34375 C 12.757812 35.382812 12.726562 35.425781 12.695312 35.46875 C 12.632812 35.550781 12.566406 35.644531 12.484375 35.726562 C 12.40625 35.8125 12.328125 35.902344 12.238281 35.984375 C 12.152344 36.070312 12.058594 36.152344 11.964844 36.230469 C 11.867188 36.3125 11.769531 36.382812 11.667969 36.453125 C 11.574219 36.527344 11.46875 36.585938 11.371094 36.648438 C 11.171875 36.765625 10.980469 36.867188 10.808594 36.9375 C 10.640625 37.011719 10.492188 37.058594 10.390625 37.089844 C 10.289062 37.121094 10.226562 37.136719 10.226562 37.136719 "/>
</g>
</svg>
